<svg width="140" height="62" viewBox="0 0 140 62" fill="none" xmlns="http://www.w3.org/2000/svg"><path d="M4.031 3.758v3.973a41.971 41.971 0 012.755-.116h5.597v11.832H5.017a18.78 18.78 0 01-2.842-.232v4.205c.957-.116 1.972-.145 2.842-.145h19.111c.667 0 1.885.029 2.726.145v-4.205c-.754.116-1.682.232-2.726.232h-7.685V7.615h6.119c.841 0 1.856.058 2.726.116V3.758c-.841.087-1.856.174-2.726.174H6.786c-.812 0-2.001-.087-2.755-.174zM34.829 1.96l-2.726 2.9c2.117 1.479 5.742 4.64 7.25 6.264l2.958-3.016c-1.682-1.769-5.452-4.785-7.482-6.148zm-3.625 19.314l2.436 3.828c4.089-.696 7.83-2.32 10.759-4.089 4.669-2.813 8.526-6.815 10.73-10.73l-2.262-4.089c-1.827 3.915-5.597 8.352-10.556 11.281-2.813 1.682-6.583 3.161-11.107 3.799zM76.85 1.728l-2.436 1.015c1.044 1.479 1.711 2.726 2.552 4.553l2.523-1.073c-.667-1.334-1.827-3.277-2.639-4.495zM80.823.336l-2.465 1.015c1.073 1.45 1.798 2.581 2.726 4.408l2.465-1.102c-.696-1.276-1.827-3.161-2.726-4.321zm-16.588.841l-2.088 3.19c1.914 1.073 4.93 3.016 6.554 4.147l2.146-3.19c-1.508-1.073-4.698-3.103-6.612-4.147zm-5.365 20.59l2.175 3.799c2.552-.464 6.728-1.914 9.686-3.567 4.727-2.755 8.845-6.409 11.513-10.44l-2.233-3.944c-2.291 4.147-6.351 8.12-11.281 10.875-3.132 1.74-6.612 2.726-9.86 3.277zm.899-13.978l-2.088 3.19c1.943 1.044 4.959 2.987 6.612 4.147l2.117-3.248c-1.479-1.044-4.669-3.045-6.641-4.089zm28.681-3.48v4.205c.986-.058 2.32-.116 3.422-.116h11.977c1.015 0 2.378.087 3.219.116V4.309c-.812.087-2.059.174-3.219.174H91.843a34.1 34.1 0 01-3.393-.174zM86.014 18.49v4.437c1.073-.087 2.494-.174 3.625-.174h16.646c.87 0 2.175.058 3.19.174V18.49c-.986.116-2.204.174-3.19.174H89.639c-1.131 0-2.494-.087-3.625-.174zm53.041-14.123l-2.291-2.146c-.551.174-2.146.261-2.958.261h-15.631a22.99 22.99 0 01-3.538-.29v4.031c1.363-.116 2.32-.203 3.538-.203h15.109c-.754 1.421-3.016 3.973-5.336 5.394l3.016 2.407c2.842-2.03 5.597-5.684 6.96-7.946.261-.435.812-1.131 1.131-1.508zm-11.832 3.915h-4.205c.145.928.203 1.711.203 2.61 0 4.756-.696 7.83-4.379 10.382a11.459 11.459 0 01-3.045 1.595l3.393 2.755c7.888-4.234 8.033-10.15 8.033-17.342zM8.004 39.715h3.364V38.7h6.206v1.015h3.393V38.7h6.119v-2.726h-6.119v-1.508h-3.393v1.508h-6.206v-1.508H8.004v1.508h-6.09V38.7h6.09v1.015zm4.205 12.76a17.485 17.485 0 01-.29 1.508H8.352a14.977 14.977 0 002.262-1.943h7.772a16.165 16.165 0 002.03 1.943h-5.162c.116-.493.203-.986.261-1.508h-3.306zm-4.234-7.308h13.05v1.16H7.975v-1.16zm0-3.016h13.05v1.131H7.975v-1.131zm19.517 9.889v-2.668H12.644c.203-.348.377-.696.551-1.044h11.31V40.15H4.669v8.178h4.959a10.88 10.88 0 01-.696 1.044H1.537v2.668h4.524c-1.421.957-3.19 1.769-5.423 2.436.667.493 1.624 1.653 1.972 2.436a29.561 29.561 0 003.335-1.45v.986h4.64c-1.131 1.189-3.132 2.03-6.699 2.581.58.638 1.363 1.827 1.653 2.639 5.249-1.044 7.685-2.697 8.903-5.22h4.959c-.145 1.218-.348 1.827-.609 2.088-.232.203-.493.261-.928.261-.493 0-1.624-.029-2.784-.145.464.725.783 1.856.841 2.697 1.392.029 2.726.058 3.48-.029.841-.087 1.508-.29 2.117-.841.638-.667.986-2.059 1.247-4.872a18.278 18.278 0 003.509 1.624c.493-.87 1.479-2.088 2.204-2.755-2.146-.493-4.234-1.392-5.887-2.436h4.901zm8.381-4.872h5.481v1.247h-5.481v-1.247zm5.481-5.742h-5.481v-1.189h5.481v1.189zm0 3.48h-5.481v-1.218h5.481v1.218zm14.007 10.005v-2.755H43.964v-1.131h10.643v-2.61H44.66v-1.247h7.714v-2.262H44.66v-1.218h7.685v-2.262H44.66v-1.189h9.106v-2.668h-8.671a38.1 38.1 0 001.566-2.668l-3.886-.464c-.29.928-.783 2.088-1.276 3.132h-4.118a29.437 29.437 0 001.566-2.494l-3.567-.667c-1.305 2.523-3.654 5.568-6.873 7.888.754.493 1.885 1.537 2.436 2.32.58-.464 1.131-.928 1.653-1.421v7.83h7.975v1.131H29.319v2.755h8.642c-2.697 1.537-6.293 2.871-9.599 3.567.725.725 1.682 2.001 2.204 2.842 3.393-.928 7.134-2.697 10.005-4.785v4.959h3.393v-5.075c2.871 2.088 6.554 3.828 9.947 4.756.464-.812 1.421-2.088 2.146-2.755-3.19-.696-6.67-2.001-9.28-3.509h8.584z" fill="#fff"/></svg>