<svg width="125" height="21" viewBox="0 0 125 21" fill="none" xmlns="http://www.w3.org/2000/svg"><path d="M10.04 1L7.99 7.05 5.93 1h-.69L3.15 7.02 1.13 1H.37l2.36 7h.77l2.06-5.97L7.61 8h.78l2.36-7h-.71zm3.267 6.36v-2.6h3.62v-.63h-3.62V1.64h4.06V1h-4.8v7h4.95v-.64h-4.21zM28.023 8h.78l-3.2-7h-.73l-3.2 7h.77l.84-1.87h3.9l.84 1.87zm-4.47-2.47l1.68-3.76 1.68 3.76h-3.36zM36.011 8l-1.71-2.4c1.02-.33 1.6-1.1 1.6-2.2 0-1.5-1.08-2.4-2.86-2.4h-2.62v7h.74V5.78h1.88c.2 0 .38-.01.56-.03l1.6 2.25h.81zm-2.99-2.85h-1.86V1.64h1.86c1.4 0 2.14.64 2.14 1.76 0 1.1-.74 1.75-2.14 1.75zm5.827 2.21v-2.6h3.62v-.63h-3.62V1.64h4.06V1h-4.8v7h4.95v-.64h-4.21zm9.487.64h4.66v-.64h-3.92V1h-.74v7zm9.272.06c2.1 0 3.67-1.51 3.67-3.56S59.707.94 57.607.94c-2.12 0-3.68 1.52-3.68 3.56s1.56 3.56 3.68 3.56zm0-.66c-1.69 0-2.95-1.23-2.95-2.9s1.26-2.9 2.95-2.9c1.68 0 2.93 1.23 2.93 2.9s-1.25 2.9-2.93 2.9zm8.848.66c2.1 0 3.67-1.51 3.67-3.56S68.555.94 66.455.94c-2.12 0-3.68 1.52-3.68 3.56s1.56 3.56 3.68 3.56zm0-.66c-1.69 0-2.95-1.23-2.95-2.9s1.26-2.9 2.95-2.9c1.68 0 2.93 1.23 2.93 2.9s-1.25 2.9-2.93 2.9zm10.819.6h.88l-3.24-3.83L77.944 1h-.85l-4.11 4.23V1h-.74v7h.74V6.16l1.43-1.45L77.274 8zm2.54 0h.74V1h-.74v7zm8.597-7v5.68L83.9 1h-.61v7h.74V2.32L88.53 8h.61V1h-.73zm8.405 5.86c-.54.39-1.16.54-1.83.54-1.72 0-2.99-1.24-2.99-2.9 0-1.67 1.27-2.9 3-2.9.82 0 1.52.24 2.11.82l.46-.47c-.62-.67-1.54-1.01-2.6-1.01-2.14 0-3.7 1.51-3.7 3.56s1.56 3.56 3.69 3.56c.97 0 1.91-.3 2.57-.89V4.5h-.71v2.36zm11.141-5.22V1h-4.8v7h.74V5.03h3.62v-.64h-3.62V1.64h4.06zm4.96 6.42c2.1 0 3.67-1.51 3.67-3.56s-1.57-3.56-3.67-3.56c-2.12 0-3.68 1.52-3.68 3.56s1.56 3.56 3.68 3.56zm0-.66c-1.69 0-2.95-1.23-2.95-2.9s1.26-2.9 2.95-2.9c1.68 0 2.93 1.23 2.93 2.9s-1.25 2.9-2.93 2.9zm11.379.6l-1.71-2.4c1.02-.33 1.6-1.1 1.6-2.2 0-1.5-1.08-2.4-2.86-2.4h-2.62v7h.74V5.78h1.88c.2 0 .38-.01.56-.03l1.6 2.25h.81zm-2.99-2.85h-1.86V1.64h1.86c1.4 0 2.14.64 2.14 1.76 0 1.1-.74 1.75-2.14 1.75zM6.37 20h.78l-3.2-7h-.73l-3.2 7h.77l.84-1.87h3.9L6.37 20zM1.9 17.53l1.68-3.76 1.68 3.76H1.9zM13.888 13v5.68L9.378 13h-.61v7h.74v-5.68l4.5 5.68h.61v-7h-.73zm7.292 6.36v-2.6h3.62v-.63h-3.62v-2.49h4.06V13h-4.8v7h4.95v-.64h-4.21zM32.71 13v5.68L28.2 13h-.61v7h.74v-5.68l4.5 5.68h.61v-7h-.73zm8.404 5.86c-.54.39-1.16.54-1.83.54-1.72 0-2.99-1.24-2.99-2.9 0-1.67 1.27-2.9 3-2.9.82 0 1.52.24 2.11.82l.46-.47c-.62-.67-1.54-1.01-2.6-1.01-2.14 0-3.7 1.51-3.7 3.56s1.56 3.56 3.69 3.56c.97 0 1.91-.3 2.57-.89V16.5h-.71v2.36zM44.38 20h.74v-7h-.74v7zm8.597-7v5.68L48.466 13h-.61v7h.74v-5.68l4.5 5.68h.61v-7h-.73zm4.215 6.36v-2.6h3.62v-.63h-3.62v-2.49h4.06V13h-4.8v7h4.95v-.64h-4.21zm7.15 0v-2.6h3.62v-.63h-3.62v-2.49h4.06V13h-4.8v7h4.95v-.64h-4.21zM76.34 20l-1.71-2.4c1.02-.33 1.6-1.1 1.6-2.2 0-1.5-1.08-2.4-2.86-2.4h-2.62v7h.74v-2.22h1.88c.2 0 .38-.01.56-.03l1.6 2.25h.81zm-2.99-2.85h-1.86v-3.51h1.86c1.4 0 2.14.64 2.14 1.76 0 1.1-.74 1.75-2.14 1.75zm5.006 2.9c.29 0 .54-.24.54-.55 0-.31-.25-.54-.54-.54a.53.53 0 00-.53.54c0 .31.24.55.53.55z" fill="#fff"/></svg>