<svg width="80" height="14" viewBox="0 0 80 14" fill="none" xmlns="http://www.w3.org/2000/svg"><path d="M4.086 13.204c2.805 0 4.284-1.445 4.284-4.386V1.1H1.451v2.21h4.182v5.661c0 1.309-.578 1.972-1.683 1.972-.85 0-1.564-.442-2.21-1.309L.21 11.47c.867 1.122 2.278 1.734 3.876 1.734zm13.228 0c3.74 0 6.51-2.601 6.51-6.154S21.055.896 17.315.896c-3.757 0-6.511 2.618-6.511 6.154s2.754 6.154 6.51 6.154zm0-2.346c-2.125 0-3.723-1.547-3.723-3.808s1.598-3.808 3.723-3.808 3.723 1.547 3.723 3.808-1.598 3.808-3.723 3.808zM26.354 13h2.754V1.1h-2.754V13zM40.586 1.1v7.225L34.67 1.1h-2.278V13h2.72V5.775L41.045 13h2.261V1.1h-2.72zm16.557 12.104c3.383 0 5.39-1.938 5.39-5.44V1.1h-2.72v6.562c0 2.261-.97 3.196-2.653 3.196-1.666 0-2.652-.935-2.652-3.196V1.1h-2.754v6.664c0 3.502 2.006 5.44 5.39 5.44zm12.48 0c3.4 0 5.05-1.7 5.05-3.689 0-4.369-6.92-2.856-6.92-5.049 0-.748.63-1.36 2.262-1.36 1.054 0 2.193.306 3.298.935l.85-2.091C73.058 1.253 71.528.896 70.032.896c-3.383 0-5.015 1.683-5.015 3.706 0 4.42 6.919 2.89 6.919 5.117 0 .731-.663 1.275-2.295 1.275-1.428 0-2.924-.51-3.927-1.241l-.935 2.074c1.054.816 2.958 1.377 4.845 1.377zm7.392-4.335h2.108L79.65 1.1h-3.162l.527 7.769zm1.054 4.267c.952 0 1.632-.697 1.632-1.547 0-.867-.68-1.513-1.632-1.513-.952 0-1.632.646-1.632 1.513 0 .85.68 1.547 1.632 1.547z" fill="#fff"/></svg>