<svg width="212" height="39" viewBox="0 0 212 39" fill="none" xmlns="http://www.w3.org/2000/svg"><rect x="1" y="1" width="210" height="37" rx="18.5" fill="#DB3164"/><path d="M78.188 26.204c2.074 0 3.791-.748 4.913-2.125l-1.768-1.632c-.799.935-1.802 1.411-2.992 1.411-2.227 0-3.808-1.564-3.808-3.808 0-2.244 1.581-3.808 3.808-3.808 1.19 0 2.193.476 2.992 1.394l1.768-1.632c-1.122-1.36-2.839-2.108-4.896-2.108-3.706 0-6.46 2.567-6.46 6.154 0 3.587 2.754 6.154 6.443 6.154zM93.581 14.1v4.692h-5.406V14.1h-2.754V26h2.754v-4.879h5.406V26h2.754V14.1h-2.754zm8.767 9.69v-2.754h5.525v-2.142h-5.525V16.31h6.256V14.1h-8.993V26h9.214v-2.21h-6.477zm14.79 2.414c2.074 0 3.791-.748 4.913-2.125l-1.768-1.632c-.799.935-1.802 1.411-2.992 1.411-2.227 0-3.808-1.564-3.808-3.808 0-2.244 1.581-3.808 3.808-3.808 1.19 0 2.193.476 2.992 1.394l1.768-1.632c-1.122-1.36-2.839-2.108-4.896-2.108-3.706 0-6.46 2.567-6.46 6.154 0 3.587 2.754 6.154 6.443 6.154zM132.514 26h3.213l-5.219-6.596 4.93-5.304h-3.06l-5.27 5.559V14.1h-2.737V26h2.737v-3.009l1.598-1.666L132.514 26zm4.901-4.131h2.108l.527-7.769h-3.162l.527 7.769zm1.054 4.267c.952 0 1.632-.697 1.632-1.547 0-.867-.68-1.513-1.632-1.513-.952 0-1.632.646-1.632 1.513 0 .85.68 1.547 1.632 1.547z" fill="#fff"/><rect x="1" y="1" width="210" height="37" rx="18.5" stroke="#fff" stroke-width="2"/></svg>